<?xml version="1.0" encoding="utf-8" ?><svg xmlns="http://www.w3.org/2000/svg" width="1024" height="1024" viewBox="0 0 1024 1024"><rect width="1024" height="1024" fill="#000000"/><g transform="translate(64 64) scale(0.875)"><path fill="#ffffff" d="M638.642 388.425C641.143 392.264 649.476 399.241 653.248 402.753C659.473 408.649 665.638 414.61 671.74 420.634L745.628 492.677L772.362 518.895C778.434 524.864 785.058 531.037 790.363 537.516C814.356 566.822 826.972 602.885 826.531 640.764C826.43 649.433 826.55 658.835 824.996 667.467C823.813 667.792 824.121 667.921 823.554 669.23L823.513 669.243C823.492 668.952 823.47 668.661 823.449 668.369C822.641 669.275 823.727 673.775 822.847 674.75C822.677 674.715 822.102 674.609 821.982 674.61C821.319 675.656 818.623 686.222 818.336 688.022C818.657 688.289 819.072 688.095 819.445 688.394C819.562 688.727 818.986 690.485 818.849 690.802L818.69 690.757C818.434 690.265 818.517 689.624 818.14 689.192L817.98 689.16C817.559 689.981 816.645 694.328 816.342 694.719L816.309 694.905C816.605 695.201 817.371 695.205 817.341 695.522C817.271 696.255 816.253 699.431 815.715 699.887L815.626 699.888C815.512 699.477 815.465 698.93 815.132 698.681L814.969 698.684C814.825 698.948 814.462 700.184 814.5 700.524C815.141 701.429 816.308 700.736 814.253 703.944C814.086 703.679 813.918 703.414 813.751 703.15C812.617 703.123 813.524 706.611 813.826 707.282C813.327 709.214 811.038 715.05 810.078 716.9C808.414 717.958 808.316 719.335 807.487 719.724L807.401 719.696C805.195 721.045 804.547 726.724 804.134 726.829L803.91 726.643C802.336 726.77 801.75 731.585 801.77 732.926C798.173 742.69 776.552 767.512 768.771 775.001C739.185 803.477 699.773 821.511 659.266 827.301C643.434 829.564 623.871 829.032 607.748 829.052L537.746 829.147L449.03 829.012C428.922 829.01 408.769 829.131 388.66 828.984C285.081 828.226 195.291 742.741 197.125 636.869C203.413 636.361 210.944 636.636 217.354 636.643L249.572 636.602C292.949 636.512 339.115 637.377 382.2 636.306L387.115 636.37C415.693 636.676 444.782 636.348 473.405 636.401L640.448 636.442C633.787 629.652 626.577 623.17 619.772 616.451L533.257 532.083C526.55 525.534 519.461 519.211 512.891 512.573L512.69 511.519C513.994 509.676 515.65 508.162 517.264 506.588C524.794 499.237 532.523 492.153 539.997 484.74L613.541 412.494C620.928 405.23 631.999 395.396 638.642 388.425Z"/><path fill="#ffffff" d="M385.695 635.051C382.743 631.609 376.3 626.533 372.799 622.975C365.736 615.797 358.319 608.8 351.124 601.768C324.822 575.596 298.268 549.679 271.464 524.02C255.782 508.847 240.34 495.375 227.489 477.698C201.075 441.669 192.741 396.019 199.991 352.398C213.035 273.915 279.201 211.285 356.96 198.081C381.023 193.995 403.891 194.941 428.16 194.934L518.008 194.926L599.812 194.955C620.928 194.97 643.553 194.101 664.262 197.593L664.896 198.066C665.67 198.661 665.799 198.72 666.769 198.759C665.861 199.229 664.761 198.753 663.831 199.123L663.819 199.167C664.74 200.045 674.583 200.422 676.812 200.949C677.055 200.862 677.227 200.52 677.39 200.287C693.642 202.847 724.185 215.612 737.518 225.192C737.336 226.168 736.623 226.77 736.741 227.188C738.32 228.192 739.855 229.261 741.416 230.292C741.832 230.568 742.258 230.826 742.695 231.067C745.385 228.948 745.136 233.119 749.416 233.276C773.533 249.101 802.938 285.573 812.747 312.841C812.095 314.88 818.266 331.499 819.244 335.264C823.104 350.122 825.959 365.036 824.956 380.468C824.802 382.95 825.979 384.344 825.105 386.319C817.842 385.884 713.364 385.985 711.399 386.637L711.146 386.888L383.676 386.993C387.357 391.466 394.368 397.733 398.787 401.954C405.531 408.466 412.234 415.02 418.897 421.615L511.688 511.227L511.646 512.675C483.961 537.928 458.306 564.159 431.545 590.302L403.66 617.372C398.615 622.229 390.539 629.639 386.113 634.723C385.974 634.832 385.834 634.942 385.695 635.051Z"/><path fill="#ffffff" fill-opacity="0.94901961" d="M711.146 386.888L711.399 386.637C713.364 385.985 817.842 385.884 825.105 386.319C825.979 384.344 824.802 382.95 824.956 380.468C825.959 365.036 823.104 350.122 819.244 335.264C818.266 331.499 812.095 314.88 812.747 312.841C822.715 334.803 827.315 363.075 826.999 387.004L749.293 386.978C739.028 386.974 720.907 387.568 711.146 386.888Z"/><path fill="#ffffff" fill-opacity="0.96470588" d="M813.826 707.282C813.524 706.611 812.617 703.123 813.751 703.15C813.918 703.414 814.086 703.679 814.253 703.944C816.308 700.736 815.141 701.429 814.5 700.524C814.462 700.184 814.825 698.948 814.969 698.684L815.132 698.681C815.465 698.93 815.512 699.477 815.626 699.888L815.715 699.887C816.253 699.431 817.271 696.255 817.341 695.522C817.371 695.205 816.605 695.201 816.309 694.905L816.342 694.719C816.645 694.328 817.559 689.981 817.98 689.16L818.14 689.192C818.517 689.624 818.434 690.265 818.69 690.757L818.849 690.802C818.986 690.485 819.562 688.727 819.445 688.394C819.072 688.095 818.657 688.289 818.336 688.022C818.623 686.222 821.319 675.656 821.982 674.61C822.102 674.609 822.677 674.715 822.847 674.75C823.727 673.775 822.641 669.275 823.449 668.369C823.47 668.661 823.492 668.952 823.513 669.243L823.554 669.23C824.121 667.921 823.813 667.792 824.996 667.467C822.536 680.923 819.349 694.727 813.826 707.282Z"/><path fill="#ffffff" fill-opacity="0.96862745" d="M801.77 732.926C801.75 731.585 802.336 726.77 803.91 726.643L804.134 726.829C804.547 726.724 805.195 721.045 807.401 719.696L807.487 719.724C808.316 719.335 808.414 717.958 810.078 716.9C808.788 720.531 804.02 729.849 801.77 732.926Z"/><path fill="#ffffff" fill-opacity="0.96078432" d="M737.518 225.192C739.024 225.911 748.027 232.019 749.416 233.276C745.136 233.119 745.385 228.948 742.695 231.067C742.258 230.826 741.832 230.568 741.416 230.292C739.855 229.261 738.32 228.192 736.741 227.188C736.623 226.77 737.336 226.168 737.518 225.192Z"/><path fill="#ffffff" fill-opacity="0.96470588" d="M664.262 197.593C667.195 198.014 674.872 199.048 677.39 200.287C677.227 200.52 677.055 200.862 676.812 200.949C674.583 200.422 664.74 200.045 663.819 199.167L663.831 199.123C664.761 198.753 665.861 199.229 666.769 198.759C665.799 198.72 665.67 198.661 664.896 198.066L664.262 197.593Z"/><path fill="#ffffff" fill-opacity="0.023529412" d="M386.113 634.723L387.115 636.37L382.2 636.306C383.914 635.87 384.128 635.837 385.695 635.051C385.834 634.942 385.974 634.832 386.113 634.723Z"/><path fill="#ffffff" fill-opacity="0.92941177" d="M511.688 511.227L512.69 511.519L512.891 512.573L511.646 512.675L511.688 511.227Z"/></g></svg>